<svg width="38" height="60" viewBox="0 0 38 60" fill="none" xmlns="http://www.w3.org/2000/svg">
<path fill-rule="evenodd" clip-rule="evenodd" d="M8 60C24.5685 60 38 46.5685 38 30C38 13.4315 24.5685 0 8 0C-8.56854 0 -22 13.4315 -22 30C-22 46.5685 -8.56854 60 8 60ZM3.3052 30L10.7203 37.3779C11.0932 37.749 11.0932 38.3506 10.7203 38.7217C10.3474 39.0928 9.74287 39.0928 9.36998 38.7217L1.27967 30.6719C0.906776 30.3008 0.906776 29.6992 1.27967 29.3281L9.36998 21.2783C9.74287 20.9072 10.3474 20.9072 10.7203 21.2783C11.0932 21.6494 11.0932 22.251 10.7203 22.6221L3.3052 30Z" fill="white"/>
</svg>
